<?xml version="1.0" standalone="no"?>
<!DOCTYPE svg PUBLIC "-//W3C//DTD SVG 20010904//EN"
 "http://www.w3.org/TR/2001/REC-SVG-20010904/DTD/svg10.dtd">
<svg version="1.0" xmlns="http://www.w3.org/2000/svg"
 width="612.000000pt" height="408.000000pt" viewBox="0 0 612.000000 408.000000"
 preserveAspectRatio="xMidYMid meet">

<g transform="translate(0.000000,408.000000) scale(0.100000,-0.100000)"
fill="#000000" stroke="none">
<path d="M0 3938 l1 -143 25 49 c28 52 57 139 68 199 l7 37 -51 0 -50 0 0
-142z"/>
<path d="M178 4036 c3 -31 12 -53 33 -75 38 -43 46 -94 24 -163 -20 -60 -53
-130 -67 -139 -8 -5 -36 -73 -60 -146 -10 -28 -8 -35 15 -63 14 -17 29 -47 32
-68 4 -20 10 -46 15 -58 4 -12 11 -48 15 -80 8 -68 31 -173 39 -182 14 -13 20
14 18 79 -3 71 3 82 30 52 46 -52 151 -314 168 -416 5 -33 16 -67 25 -77 8 -9
15 -19 15 -23 0 -3 10 -32 21 -63 15 -40 24 -52 30 -43 14 23 10 67 -10 107
-10 20 -28 78 -40 127 -12 50 -30 119 -41 155 -10 36 -28 96 -39 135 -12 38
-19 74 -17 80 3 5 5 4 5 -2 1 -7 7 -13 15 -13 24 0 74 -91 100 -184 14 -48 26
-94 26 -102 0 -7 12 -39 26 -71 14 -32 36 -89 49 -128 14 -38 34 -88 45 -110
11 -21 20 -48 20 -58 0 -10 20 -78 45 -150 67 -193 78 -240 63 -271 -14 -31
-12 -31 -79 -4 -61 24 -79 41 -79 76 0 13 -12 39 -26 57 -14 19 -28 52 -31 75
-6 43 -13 49 -33 25 -7 -8 -23 -15 -36 -15 -19 0 -30 12 -53 58 -35 69 -64 97
-159 151 -81 47 -108 84 -163 226 -17 44 -43 102 -57 130 -14 27 -33 75 -43
105 -18 54 -18 45 -18 -532 -1 -324 2 -588 7 -588 4 -1 68 -2 142 -4 100 -3
145 -8 175 -21 25 -11 75 -19 135 -21 108 -5 251 -22 294 -35 16 -5 47 -9 70
-9 23 0 61 -5 86 -11 84 -21 266 -6 332 27 39 20 79 17 160 -11 52 -18 92 -25
147 -25 68 0 78 3 103 27 15 15 28 34 28 44 0 32 75 145 135 204 63 61 106 85
152 85 39 0 51 11 50 43 -2 28 -17 39 -17 12 0 -21 -44 -19 -61 2 -8 9 -14 35
-14 57 0 33 -3 41 -18 40 -12 -1 -16 3 -13 15 13 46 16 111 6 111 -11 0 -16
-10 -45 -93 -16 -44 -19 -47 -32 -34 -15 15 -21 62 -9 74 13 13 18 -7 6 -22
-7 -8 -8 -15 -3 -15 20 0 46 46 48 84 1 23 5 49 10 60 9 21 -21 86 -40 86 -8
0 -14 -23 -18 -60 -3 -34 -11 -67 -18 -76 -6 -8 -9 -17 -6 -21 10 -9 -12 -43
-27 -43 -8 0 -19 7 -26 15 -7 8 -21 15 -31 15 -23 0 -24 13 -4 30 8 7 15 18
15 25 0 21 -36 6 -51 -22 -7 -13 -25 -27 -40 -30 -28 -5 -64 -33 -71 -54 -4
-12 -48 -4 -48 9 0 4 11 19 25 34 14 15 25 34 25 42 0 8 6 19 13 23 52 34 86
109 36 83 -11 -6 -19 -7 -19 -2 0 18 -59 7 -82 -16 -14 -12 -32 -22 -41 -22
-9 0 -28 -11 -43 -25 -29 -27 -55 -35 -35 -11 9 11 9 15 -1 20 -7 3 -4 4 8 1
25 -6 59 27 51 50 -4 8 -3 15 2 15 12 0 111 99 111 111 0 5 -16 2 -36 -6 -46
-19 -50 -19 -32 3 41 47 29 57 -20 16 -34 -29 -48 -69 -15 -43 15 11 14 10 -1
-9 -20 -23 -32 -30 -21 -12 10 16 -24 23 -42 9 -8 -8 -30 -14 -46 -15 -24 -2
-27 0 -14 8 24 13 21 31 -4 25 -16 -4 -18 -3 -9 8 7 8 20 17 31 20 11 4 33 19
49 34 24 22 28 29 18 40 -11 10 -10 11 4 6 9 -4 27 0 40 9 12 9 18 16 13 16
-5 0 1 7 13 16 12 8 20 20 17 25 -11 17 -58 9 -102 -16 -38 -23 -43 -24 -43
-8 1 30 33 60 73 67 20 4 37 11 37 17 0 6 -7 6 -19 -1 -11 -5 -31 -10 -46 -10
-14 0 -58 -16 -97 -35 -40 -19 -74 -33 -76 -31 -2 3 7 10 20 16 60 31 128 84
116 91 -7 4 -16 5 -20 3 -15 -10 -50 7 -44 22 3 8 0 14 -7 15 -7 0 3 6 20 12
46 17 40 32 -11 30 -31 -2 -46 2 -50 12 -3 8 -12 15 -21 15 -8 0 -15 7 -15 15
0 8 9 15 19 15 11 0 22 4 25 9 9 14 -22 21 -50 11 -32 -12 -34 -12 -34 0 0 6
7 10 15 10 8 0 15 5 15 10 0 6 -5 10 -11 10 -5 0 -7 5 -4 10 3 6 -3 10 -14 10
-11 0 -23 5 -26 10 -3 6 -13 10 -21 10 -8 0 -14 -4 -14 -10 0 -5 7 -10 15 -10
8 0 15 -4 15 -9 0 -5 -11 -8 -25 -8 -15 0 -25 5 -25 13 0 8 -10 14 -22 14 -20
0 -20 1 -4 19 10 11 34 24 54 29 32 9 28 10 -33 7 -39 -2 -71 -8 -73 -14 -4
-13 -39 -15 -46 -2 -3 5 5 12 18 15 13 3 26 16 29 28 5 16 9 19 19 11 16 -13
78 -15 78 -2 0 5 -12 9 -26 9 -39 0 -28 35 11 36 69 3 67 2 48 22 -16 16 -19
16 -25 2 -5 -12 -7 -11 -9 5 -1 11 -2 26 -2 33 1 7 -17 15 -39 18 -22 4 -35
10 -28 14 17 10 -13 20 -59 20 -35 0 -38 2 -33 25 3 18 0 25 -12 25 -24 0 -19
15 9 28 26 12 34 32 13 32 -10 0 -9 3 1 9 7 5 31 3 56 -4 l43 -13 6 29 c4 20
0 39 -10 55 -20 30 -10 46 11 18 14 -19 14 -19 15 1 0 11 10 26 22 34 22 13
22 13 7 -5 -9 -10 -14 -25 -12 -32 4 -10 8 -9 17 4 7 9 19 15 26 12 10 -3 9
-9 -7 -25 -11 -11 -28 -25 -38 -30 -12 -7 -14 -17 -10 -36 4 -15 11 -25 15
-22 5 3 6 14 3 24 -3 13 2 23 16 30 12 7 21 8 21 2 0 -5 -7 -12 -16 -15 -8 -3
-13 -10 -9 -15 3 -6 12 -8 19 -5 9 4 16 -6 20 -31 4 -21 11 -33 18 -29 6 4 8
-1 3 -15 -4 -12 -2 -21 4 -21 6 0 7 -7 4 -17 -4 -10 -2 -14 5 -9 6 3 13 2 17
-4 3 -6 0 -13 -9 -16 -8 -3 -17 -12 -20 -20 -8 -21 5 -46 20 -40 7 3 16 0 20
-6 4 -7 3 -8 -4 -4 -19 11 -13 -25 12 -69 16 -31 27 -39 44 -37 15 2 22 -2 22
-12 0 -9 -5 -16 -11 -16 -5 0 -7 5 -4 10 3 6 2 10 -3 10 -13 0 -24 -29 -16
-41 3 -5 10 -7 15 -4 5 4 9 0 9 -7 1 -23 48 -68 65 -62 11 5 14 2 8 -12 -4
-10 -2 -15 4 -11 8 5 10 49 3 87 0 3 -9 -6 -20 -20 -22 -28 -23 -21 -11 52 4
26 4 45 0 42 -4 -2 -6 19 -3 48 l4 53 -20 -25 c-11 -14 -20 -35 -20 -47 0 -17
-4 -20 -21 -16 -17 5 -19 7 -6 14 10 6 14 24 13 64 -2 59 10 63 16 5 l4 -35
12 40 c7 22 16 88 19 147 6 107 -2 150 -32 188 -7 8 -16 33 -20 55 -3 22 -16
55 -27 73 -23 38 -23 37 40 72 28 16 46 32 44 41 -2 8 0 11 4 7 4 -4 21 4 37
18 27 23 38 26 84 22 64 -6 83 -19 62 -45 -13 -17 -13 -17 14 0 26 17 32 17
78 3 67 -19 157 -16 192 7 25 16 30 46 5 31 -7 -5 -8 -2 -4 5 11 18 -25 56
-36 39 -7 -10 -8 -9 -7 2 3 34 -1 51 -13 44 -8 -5 -9 0 -6 14 4 12 2 22 -3 22
-5 0 -9 -5 -9 -10 0 -6 -11 -8 -25 -4 -16 4 -25 2 -25 -5 0 -8 -4 -9 -12 -2
-7 6 -28 22 -45 37 -21 16 -33 35 -33 50 l0 24 -126 0 c-87 0 -129 -4 -138
-12 -20 -21 -27 -50 -15 -64 13 -16 3 -54 -15 -54 -6 0 -12 -9 -12 -21 0 -14
5 -19 18 -16 11 3 18 0 18 -9 0 -8 5 -14 11 -14 8 0 8 -5 -1 -15 -9 -11 -16
-12 -25 -5 -6 5 -15 7 -19 3 -4 -4 3 -16 16 -26 13 -10 17 -16 11 -12 -7 3
-13 1 -13 -4 0 -21 -20 -10 -26 14 -6 26 -24 25 -24 -1 0 -9 5 -12 11 -8 8 4
9 0 4 -15 -4 -13 -2 -21 5 -21 6 0 8 5 4 12 -4 7 -3 8 5 4 16 -10 4 -26 -20
-26 -11 0 -22 -6 -25 -14 -3 -9 -12 -12 -22 -9 -11 5 -14 2 -9 -10 4 -9 10
-24 13 -32 4 -11 2 -13 -9 -9 -10 4 -29 -8 -52 -30 -20 -20 -40 -34 -46 -31
-5 4 -5 -5 1 -20 15 -38 2 -55 -30 -38 -25 12 -25 13 -2 13 13 0 22 6 22 15 0
18 -12 19 -27 4 -8 -8 -17 -8 -33 1 -23 12 -60 46 -60 56 0 3 -16 26 -35 52
-19 26 -49 67 -67 92 -18 25 -37 51 -43 58 -18 23 -60 62 -67 62 -9 0 -31
-107 -24 -119 7 -11 -54 -41 -83 -41 -55 0 -214 148 -277 258 l-18 32 -101 0
-100 0 3 -44z m1562 -80 c0 -11 -19 -15 -25 -6 -3 5 1 10 9 10 9 0 16 -2 16
-4z m-1336 -218 c-8 -29 -14 -33 -47 -36 -20 -2 -37 -1 -37 2 0 14 24 56 32
56 5 0 16 7 25 16 24 23 38 3 27 -38z m546 -28 c8 -5 12 -11 9 -14 -3 -3 -14
1 -25 9 -21 16 -8 20 16 5z m-227 -27 c-7 -2 -19 -2 -25 0 -7 3 -2 5 12 5 14
0 19 -2 13 -5z m148 -20 c31 -19 40 -40 12 -28 -10 4 -34 11 -53 14 -32 6 -34
8 -15 19 25 15 22 15 56 -5z m-154 1 c-3 -3 -12 -4 -19 -1 -8 3 -5 6 6 6 11 1
17 -2 13 -5z m208 -70 c11 -1 23 -3 26 -3 8 -1 69 -94 69 -105 0 -10 -67 62
-74 79 -3 8 -18 15 -33 16 -15 0 -44 7 -63 15 l-35 14 45 -7 c25 -3 54 -7 65
-9z m392 -151 c-3 -10 -5 -4 -5 12 0 17 2 24 5 18 2 -7 2 -21 0 -30z m-262 17
c3 -5 2 -10 -4 -10 -5 0 -13 5 -16 10 -3 6 -2 10 4 10 5 0 13 -4 16 -10z m235
-15 c0 -8 -7 -15 -15 -15 -13 0 -14 3 -3 15 16 18 18 18 18 0z m-363 -1 c-3
-3 -12 -4 -19 -1 -8 3 -5 6 6 6 11 1 17 -2 13 -5z m-92 -44 c3 -5 1 -10 -4
-10 -6 0 -11 5 -11 10 0 6 2 10 4 10 3 0 8 -4 11 -10z m468 -71 c-6 -23 -12
-20 -18 9 -2 14 1 19 10 16 7 -3 11 -14 8 -25z m-288 -48 c-35 -14 -111 -23
-100 -12 9 8 42 14 105 19 8 0 6 -3 -5 -7z m60 -21 c3 -6 -1 -7 -9 -4 -18 7
-21 14 -7 14 6 0 13 -4 16 -10z m-95 -7 c-1 -18 -17 -28 -47 -31 -18 -1 -33 0
-33 3 0 5 59 33 73 34 4 1 7 -2 7 -6z m220 -298 c0 -8 -6 -15 -12 -15 -7 0
-23 -3 -35 -6 -13 -4 -23 -2 -23 2 0 10 37 31 58 33 6 0 12 -6 12 -14z m30
-35 c0 -5 -2 -10 -4 -10 -3 0 -8 5 -11 10 -3 6 -1 10 4 10 6 0 11 -4 11 -10z
m120 -240 c0 -5 -4 -10 -10 -10 -5 0 -10 5 -10 10 0 6 5 10 10 10 6 0 10 -4
10 -10z m-40 -24 c0 -6 -92 -57 -96 -53 -2 1 7 15 19 30 14 17 32 27 50 27 15
0 27 -2 27 -4z m15 -126 c3 -6 -1 -7 -9 -4 -18 7 -21 14 -7 14 6 0 13 -4 16
-10z m365 -193 c0 -2 -13 -18 -30 -37 -30 -33 -54 -35 -34 -2 12 18 64 50 64
39z m50 -41 c0 -17 -28 -41 -37 -32 -10 9 16 58 27 51 6 -3 10 -12 10 -19z
m150 -116 c0 -5 -4 -10 -10 -10 -5 0 -10 5 -10 10 0 6 5 10 10 10 6 0 10 -4
10 -10z"/>
<path d="M838 4073 c6 -2 18 -2 25 0 6 3 1 5 -13 5 -14 0 -19 -2 -12 -5z"/>
<path d="M1887 4073 c-14 -13 -7 -25 11 -18 9 4 27 8 40 10 40 4 37 15 -5 15
-22 0 -43 -3 -46 -7z"/>
<path d="M2005 4058 c7 -30 0 -38 -58 -67 -29 -15 -49 -32 -52 -45 -11 -53 -9
-65 18 -90 24 -23 37 -26 95 -26 37 0 95 9 129 19 35 11 72 17 82 14 11 -3 26
3 35 14 47 56 76 83 88 83 13 0 58 -83 58 -106 0 -5 -14 -29 -30 -54 -16 -25
-30 -53 -30 -63 0 -11 -10 -32 -21 -49 -18 -24 -20 -37 -14 -71 4 -23 8 -60 8
-82 -1 -52 -31 -176 -49 -196 -11 -12 -12 -23 -3 -47 12 -36 35 -48 48 -24 12
22 31 180 31 254 0 32 5 78 12 103 l12 45 29 -28 28 -27 -3 29 c-3 27 0 30 27
32 45 3 85 22 85 40 0 9 15 30 33 48 18 17 38 43 44 58 11 24 9 28 -26 52 -20
14 -44 26 -52 26 -17 0 -71 53 -89 88 -8 17 -9 32 -1 54 6 17 11 33 11 34 0 2
-34 4 -75 4 -52 0 -75 -4 -75 -12 0 -9 -3 -9 -12 0 -8 8 -56 12 -150 12 l-138
0 5 -22z m155 -63 c0 -32 -27 -61 -62 -67 -38 -7 -35 6 10 52 44 47 52 49 52
15z m70 8 c0 -5 -5 -15 -10 -23 -8 -12 -10 -11 -10 8 0 12 5 22 10 22 6 0 10
-3 10 -7z m-260 -73 c0 -5 -2 -10 -4 -10 -3 0 -8 5 -11 10 -3 6 -1 10 4 10 6
0 11 -4 11 -10z"/>
<path d="M2840 4055 c-8 -22 -14 -24 -37 -19 -16 4 -36 11 -45 15 -21 11 -58
12 -58 2 0 -5 18 -18 40 -31 47 -26 53 -57 16 -72 -15 -5 -32 -26 -44 -54 -11
-24 -30 -49 -41 -55 -29 -16 -27 -25 20 -73 22 -24 47 -55 54 -70 8 -14 27
-35 43 -46 40 -29 152 -252 152 -303 0 -9 9 -24 20 -34 11 -10 20 -26 20 -35
0 -18 73 -100 89 -100 5 0 16 -17 26 -37 9 -21 24 -54 34 -73 13 -23 17 -47
13 -73 l-5 -39 31 16 c27 14 31 14 43 0 7 -8 15 -32 18 -52 5 -31 11 -38 34
-40 24 -3 27 0 27 25 0 15 -7 41 -15 57 -18 35 -18 36 -1 36 33 0 72 -89 46
-105 -5 -3 -10 -26 -10 -51 0 -33 -4 -44 -15 -44 -22 0 0 -41 26 -47 10 -3 19
-10 19 -17 1 -12 45 -66 56 -66 3 0 4 6 1 14 -11 27 54 36 88 12 11 -7 40 -16
64 -19 30 -4 51 -13 65 -31 14 -16 33 -26 56 -28 l35 -3 12 80 c17 117 17 169
-2 161 -11 -4 -15 1 -15 19 0 14 -4 25 -10 25 -5 0 -10 9 -10 21 0 21 22 49
38 49 15 0 23 45 16 90 -4 24 -3 40 3 40 5 0 15 18 22 40 19 64 66 53 102 -25
18 -39 59 -43 119 -13 51 26 46 1 42 228 -2 97 -4 111 -23 129 -21 19 -20 59
0 47 10 -7 32 106 23 116 -6 5 -223 13 -270 9 -8 -1 -11 -8 -7 -20 9 -29 -20
-47 -49 -31 -13 6 -33 9 -44 6 -18 -6 -19 -10 -9 -36 14 -37 -4 -60 -48 -60
-33 0 -65 25 -65 51 0 20 20 39 41 39 9 0 19 9 22 19 2 10 17 27 32 37 21 14
28 15 35 4 9 -14 40 -7 40 10 0 6 -10 10 -22 8 -28 -4 -36 22 -37 122 -1 51 6
98 20 145 12 39 24 89 26 113 l5 42 -421 0 -421 0 -10 -25z m652 -297 c-8 -8
-9 -4 -5 13 4 13 8 18 11 10 2 -7 -1 -18 -6 -23z m-442 -260 c7 -29 18 -56 24
-60 6 -4 1 -6 -12 -5 -18 1 -26 11 -36 47 -9 30 -10 49 -4 58 6 6 12 12 13 12
2 0 9 -24 15 -52z m-57 -73 c39 -34 30 -92 -10 -67 -13 8 -35 92 -24 92 3 0
19 -12 34 -25z m805 -34 c29 -25 30 -81 3 -98 -17 -11 -25 -7 -59 28 -23 23
-43 35 -47 29 -3 -5 -3 -14 0 -20 3 -5 1 -10 -4 -10 -16 0 -13 46 4 60 12 10
15 10 15 -1 0 -8 7 -4 16 9 18 27 41 28 72 3z m-235 -94 c-1 -15 -6 -32 -12
-39 -78 -97 -91 -98 -91 -4 l0 63 36 1 c20 1 39 4 42 7 13 12 27 -4 25 -28z
m80 -50 c2 -7 3 -45 2 -86 -4 -82 -11 -92 -65 -89 -19 1 -47 -2 -62 -6 -33
-10 -44 8 -33 52 6 23 8 25 18 12 7 -8 21 -16 32 -17 17 -2 20 4 20 36 1 66
70 144 88 98z m13 -268 c3 -6 0 -18 -9 -26 -12 -12 -18 -13 -36 -1 -11 7 -21
18 -21 23 0 15 57 18 66 4z"/>
<path d="M3770 4070 c8 -5 22 -10 31 -10 9 0 28 -9 43 -21 35 -27 79 -19 74
14 -3 20 -9 22 -83 25 -56 1 -75 -1 -65 -8z"/>
<path d="M5010 4061 c0 -10 9 -21 20 -24 16 -4 20 0 20 19 0 17 -6 24 -20 24
-13 0 -20 -7 -20 -19z"/>
<path d="M5755 4070 c3 -5 10 -10 16 -10 5 0 9 5 9 10 0 6 -7 10 -16 10 -8 0
-12 -4 -9 -10z"/>
<path d="M6040 4059 c0 -14 5 -19 17 -17 26 5 29 38 4 38 -15 0 -21 -6 -21
-21z"/>
<path d="M3712 4028 c-19 -19 -14 -43 13 -72 25 -27 33 -30 59 -20 25 10 19
30 -19 69 -41 40 -37 39 -53 23z"/>
<path d="M5941 3905 l2 -120 8 110 c5 66 4 114 -2 120 -5 5 -8 -36 -8 -110z"/>
<path d="M1800 3990 c-12 -7 -12 -10 3 -16 21 -8 29 -3 19 13 -5 8 -13 9 -22
3z"/>
<path d="M1800 3943 c0 -8 5 -13 12 -11 18 6 21 25 3 25 -8 0 -15 -7 -15 -14z"/>
<path d="M5418 3943 c7 -3 16 -2 19 1 4 3 -2 6 -13 5 -11 0 -14 -3 -6 -6z"/>
<path d="M5455 3940 c4 -6 -10 -10 -37 -11 l-43 -2 35 -7 c20 -4 26 -8 14 -9
-12 0 -31 -10 -44 -21 -13 -11 -35 -20 -49 -20 -14 0 -32 -4 -39 -9 -8 -5 10
-8 45 -8 41 0 71 -6 102 -22 42 -22 48 -22 105 -10 34 7 68 13 76 14 11 0 15
13 16 51 l2 52 -52 5 c-93 9 -138 9 -131 -3z"/>
<path d="M5345 3900 c-3 -5 -1 -10 4 -10 6 0 11 5 11 10 0 6 -2 10 -4 10 -3 0
-8 -4 -11 -10z"/>
<path d="M3791 3741 c-7 -5 -11 -13 -7 -19 9 -16 63 -25 82 -14 14 8 12 12
-16 26 -38 18 -40 19 -59 7z"/>
<path d="M1358 3687 c-49 -46 -55 -55 -47 -75 11 -30 18 -25 65 45 21 32 45
64 53 71 13 10 13 12 0 12 -8 -1 -40 -24 -71 -53z"/>
<path d="M5036 3714 c-3 -9 -4 -20 0 -25 3 -5 0 -9 -7 -9 -7 0 -9 -11 -5 -32
3 -18 6 -108 7 -200 1 -157 2 -167 19 -158 22 12 28 54 36 268 l7 172 -25 0
c-14 0 -29 -7 -32 -16z"/>
<path d="M95 3450 c-3 -5 -1 -10 4 -10 6 0 11 5 11 10 0 6 -2 10 -4 10 -3 0
-8 -4 -11 -10z"/>
<path d="M1002 3409 c2 -8 19 -16 36 -19 17 -3 42 -15 56 -27 33 -29 34 -16 1
20 -14 15 -34 27 -45 27 -10 0 -26 3 -36 7 -12 4 -15 2 -12 -8z"/>
<path d="M1140 3395 c0 -8 4 -15 10 -15 5 0 7 7 4 15 -4 8 -8 15 -10 15 -2 0
-4 -7 -4 -15z"/>
<path d="M1400 3292 c0 -5 9 -17 20 -27 17 -16 38 -80 29 -90 -2 -2 -22 5 -43
16 -22 10 -41 17 -43 15 -2 -2 13 -18 34 -37 56 -50 93 -139 58 -139 -8 0 -15
-2 -15 -4 0 -11 104 -191 158 -271 17 -27 32 -56 32 -65 0 -9 15 -24 33 -35
17 -10 45 -29 60 -42 16 -13 37 -23 47 -23 10 0 27 -11 38 -25 21 -26 75 -35
87 -15 3 6 -3 10 -14 10 -12 0 -21 6 -21 14 0 8 -6 21 -13 28 -7 7 -18 26 -25
41 -6 15 -17 33 -22 40 -40 47 -50 61 -50 70 0 5 -14 27 -31 48 -17 21 -29 45
-26 51 2 7 -6 21 -17 31 -12 11 -21 29 -21 40 0 12 -6 22 -14 22 -16 0 -101
157 -101 185 0 10 -7 23 -15 30 -8 7 -15 19 -15 26 0 8 -4 14 -10 14 -5 0 -16
12 -24 28 -14 28 -76 80 -76 64z"/>
<path d="M1190 3172 c0 -12 19 -26 26 -19 2 2 -2 10 -11 17 -9 8 -15 8 -15 2z"/>
<path d="M1138 3153 c7 -3 16 -2 19 1 4 3 -2 6 -13 5 -11 0 -14 -3 -6 -6z"/>
<path d="M3756 3004 c-5 -13 -3 -14 6 -7 7 6 20 13 28 16 10 4 8 6 -6 6 -12 1
-25 -6 -28 -15z"/>
<path d="M1382 2975 c-10 -12 -10 -15 2 -15 7 0 16 7 20 15 7 19 -5 19 -22 0z"/>
<path d="M1411 2952 c-7 -13 -11 -26 -8 -28 8 -8 29 25 25 38 -3 8 -9 4 -17
-10z"/>
<path d="M2696 2892 c-4 -7 -6 -16 -3 -18 3 -3 -6 -26 -18 -52 -13 -26 -21
-50 -18 -54 6 -12 33 -10 33 2 0 17 30 11 61 -10 40 -29 49 -72 33 -153 -8
-37 -20 -85 -28 -106 -12 -37 -12 -40 8 -46 46 -14 197 -31 202 -23 8 13 68 9
108 -7 20 -9 40 -14 44 -11 4 2 5 31 4 65 -3 51 -7 61 -22 61 -10 0 -23 7 -30
15 -16 19 3 45 31 45 25 0 24 17 -1 25 -12 4 -19 14 -18 23 3 14 -7 17 -64 18
-64 2 -118 21 -118 42 0 11 -97 84 -144 108 -33 17 -42 27 -46 55 -4 23 -8 30
-14 21z m153 -188 c3 -16 1 -17 -13 -5 -19 16 -21 34 -3 29 6 -3 14 -13 16
-24z"/>
<path d="M3780 2778 c-6 -40 -15 -95 -20 -122 l-8 -49 57 7 c31 4 73 9 94 12
23 4 57 0 89 -11 29 -9 86 -21 128 -25 41 -5 94 -12 117 -16 l41 -6 -1 51 c0
45 -3 51 -22 51 -12 0 -30 -7 -41 -15 -22 -16 -54 -20 -54 -5 0 14 -55 40 -84
40 -27 0 -43 15 -26 25 22 13 8 23 -47 34 -134 25 -157 32 -175 48 -10 9 -18
22 -18 29 0 7 -4 15 -9 18 -5 4 -14 -27 -21 -66z"/>
<path d="M3453 2653 c9 -2 23 -2 30 0 6 3 -1 5 -18 5 -16 0 -22 -2 -12 -5z"/>
<path d="M4700 2640 c-13 -8 -13 -10 2 -10 9 0 20 5 23 10 8 13 -5 13 -25 0z"/>
<path d="M2602 2609 c-19 -46 -33 -109 -27 -119 3 -6 19 -10 35 -10 29 0 30 1
24 38 -3 20 -9 55 -13 77 -8 40 -8 40 -19 14z"/>
<path d="M4340 2590 c0 -28 2 -30 38 -30 37 0 38 1 34 30 -4 27 -8 30 -38 30
-31 0 -34 -3 -34 -30z"/>
<path d="M4982 2590 c-44 -10 -54 -22 -50 -56 l3 -29 138 -3 c126 -2 143 -1
183 19 24 13 44 25 44 28 -1 26 -26 34 -131 42 -135 9 -144 9 -187 -1z"/>
<path d="M3893 2568 c-10 -12 -33 -82 -33 -100 0 -15 32 -8 72 14 38 21 39 23
16 28 -15 4 -24 14 -26 30 -5 33 -16 44 -29 28z"/>
<path d="M3229 2565 c-4 -5 -10 -46 -14 -89 l-8 -79 31 6 c45 9 162 87 132 87
-7 0 -9 7 -6 16 5 14 0 16 -37 12 -39 -5 -46 -2 -61 21 l-17 26 6 -27 c3 -16
1 -28 -4 -28 -5 0 -11 15 -13 33 -2 17 -6 28 -9 22z"/>
<path d="M4482 2523 c7 -16 17 -35 24 -43 6 -8 22 -35 34 -60 27 -53 35 -60
68 -54 48 9 48 10 -14 77 -11 12 -31 38 -44 57 -28 41 -39 50 -62 50 -15 0
-16 -4 -6 -27z"/>
<path d="M4715 2530 c-3 -5 -3 -15 0 -20 7 -12 45 5 45 20 0 13 -37 13 -45 0z"/>
<path d="M3410 2510 c-8 -5 -10 -10 -5 -10 6 0 17 5 25 10 8 5 11 10 5 10 -5
0 -17 -5 -25 -10z"/>
<path d="M3501 2490 c50 -34 79 -39 78 -12 0 10 -3 12 -6 5 -6 -17 -28 -16
-45 0 -15 15 -53 37 -64 37 -4 0 13 -13 37 -30z"/>
<path d="M1935 2480 c-3 -5 1 -10 10 -10 9 0 13 5 10 10 -3 6 -8 10 -10 10 -2
0 -7 -4 -10 -10z"/>
<path d="M4310 2480 c0 -6 7 -10 15 -10 8 0 15 2 15 4 0 2 -7 6 -15 10 -8 3
-15 1 -15 -4z"/>
<path d="M3780 2470 c0 -5 5 -10 11 -10 5 0 7 5 4 10 -3 6 -8 10 -11 10 -2 0
-4 -4 -4 -10z"/>
<path d="M4378 2463 c-13 -3 -18 -14 -18 -39 0 -19 -6 -43 -12 -54 -10 -16
-10 -22 3 -35 13 -13 18 -11 50 20 28 26 35 41 32 59 -6 31 -32 54 -55 49z"/>
<path d="M1970 2449 c0 -5 5 -7 10 -4 6 3 10 8 10 11 0 2 -4 4 -10 4 -5 0 -10
-5 -10 -11z"/>
<path d="M3652 2430 c-10 -17 -10 -25 2 -48 l15 -27 1 25 c0 14 3 35 6 48 8
27 -7 29 -24 2z"/>
<path d="M3367 2433 c-2 -5 -3 -16 -2 -25 2 -11 -2 -15 -13 -11 -22 7 58 -64
80 -72 9 -3 19 -13 22 -21 4 -12 1 -14 -14 -9 -16 5 -20 2 -18 -16 2 -15 -6
-27 -27 -39 -16 -10 -34 -15 -38 -13 -4 3 -14 0 -22 -7 -10 -9 -19 -8 -38 5
-22 14 -24 21 -20 55 5 36 3 40 -16 40 -11 0 -21 5 -21 10 0 14 -16 12 -19 -2
-1 -7 -5 -46 -7 -85 -6 -73 -6 -73 20 -73 17 0 32 -9 43 -27 10 -16 32 -42 49
-60 36 -35 48 -83 35 -131 -9 -31 -9 -32 22 -32 100 1 322 21 331 30 5 5 20
10 32 10 13 0 30 10 39 23 15 21 23 22 203 27 l187 5 -105 11 -105 11 73 2
c40 0 80 5 90 10 9 6 34 13 55 16 41 7 42 8 27 36 -8 14 -21 19 -55 19 -25 0
-45 -5 -47 -12 -3 -9 -12 -9 -36 1 -18 8 -34 17 -37 21 -6 10 33 55 48 55 6 0
12 9 12 21 0 32 56 74 100 74 29 0 36 3 33 18 -2 13 -17 19 -63 24 -33 3 -72
9 -88 13 -17 5 -33 3 -42 -5 -10 -9 -15 -9 -15 -1 0 6 -7 11 -16 11 -11 0 -14
6 -9 23 l6 22 -14 -23 c-12 -21 -15 -22 -27 -7 -7 9 -27 25 -44 36 l-31 21 25
-22 c68 -60 76 -108 25 -154 -33 -31 -35 -35 -29 -79 7 -52 -8 -82 -38 -74
-10 3 -16 1 -13 -3 6 -10 -50 -40 -74 -40 -14 -1 -14 -2 2 -14 29 -22 -10 -40
-117 -53 -51 -6 -123 16 -129 39 -3 10 -14 18 -24 18 -12 0 -19 7 -19 20 0 12
5 19 12 16 7 -3 30 -10 53 -17 22 -7 49 -20 58 -29 18 -16 18 -14 16 46 -2 38
2 66 8 70 7 4 -1 12 -20 20 -37 15 -64 57 -87 135 -10 33 -22 55 -27 52 -6 -4
-8 0 -4 9 4 12 0 14 -16 10 -12 -3 -26 -10 -30 -16 -6 -8 -10 -8 -13 1 -3 7
-12 9 -20 6 -20 -7 -47 29 -31 40 9 5 7 10 -6 18 -9 6 -15 14 -12 20 4 5 4 9
1 9 -3 0 -7 -3 -9 -7z m211 -321 c16 -29 16 -30 -13 -28 -14 0 -25 4 -25 9 0
4 -3 6 -7 6 -37 -6 -42 12 -13 41 22 22 32 18 58 -28z m-120 -24 c0 -18 -2
-27 -6 -22 -4 6 -13 13 -21 15 -11 4 -10 8 3 22 23 22 23 22 24 -15z"/>
<path d="M2026 2411 c-9 -10 -14 -25 -10 -35 7 -18 20 -21 29 -6 3 6 1 10 -6
10 -8 0 -6 6 4 18 10 10 17 22 17 25 0 13 -17 7 -34 -12z"/>
<path d="M540 2401 c0 -11 5 -23 10 -26 6 -4 10 5 10 19 0 14 -4 26 -10 26 -5
0 -10 -9 -10 -19z"/>
<path d="M3005 2405 c17 -8 37 -14 45 -14 8 0 2 7 -15 14 -16 8 -37 14 -45 14
-8 0 -1 -7 15 -14z"/>
<path d="M3712 2325 c-7 -55 -15 -111 -18 -123 -4 -21 1 -19 46 20 45 38 100
107 100 124 0 4 -7 1 -15 -6 -21 -17 -42 -6 -59 32 l-14 33 -1 -27 c-1 -42
-19 -34 -23 10 -2 25 -7 5 -16 -63z"/>
<path d="M2956 2401 c-5 -8 -19 -11 -35 -8 -21 5 -34 -1 -59 -26 -79 -79 -84
-87 -78 -113 4 -16 2 -24 -6 -24 -9 0 -8 -3 2 -10 13 -9 13 -10 0 -10 -13 0
-13 -1 0 -10 8 -5 11 -10 5 -10 -6 0 -10 -27 -10 -60 0 -53 2 -60 20 -60 22 1
122 33 132 44 3 3 18 6 33 6 15 0 30 3 34 7 3 4 14 8 23 9 10 2 26 7 38 13 11
5 29 11 40 13 18 3 20 11 20 106 0 56 -2 103 -5 103 -16 4 -60 9 -97 10 -30 2
-43 7 -45 18 -3 13 -5 13 -12 2z m43 -41 c44 0 35 -10 -12 -13 -20 -2 -35 -1
-32 1 3 3 -1 12 -7 21 -10 13 -10 14 2 4 8 -7 30 -13 49 -13z m-34 -50 c3 -5
1 -10 -4 -10 -6 0 -11 5 -11 10 0 6 2 10 4 10 3 0 8 -4 11 -10z m-5 -50 c0 -5
-4 -10 -10 -10 -5 0 -10 5 -10 10 0 6 5 10 10 10 6 0 10 -4 10 -10z m30 -10
c0 -5 -2 -10 -4 -10 -3 0 -8 5 -11 10 -3 6 -1 10 4 10 6 0 11 -4 11 -10z m-20
-47 c0 -11 -3 -14 -8 -7 -4 6 -14 14 -22 17 -10 4 -8 6 8 6 15 1 22 -5 22 -16z
m37 1 c-3 -3 -12 -4 -19 -1 -8 3 -5 6 6 6 11 1 17 -2 13 -5z"/>
<path d="M3316 2401 c-4 -7 -5 -15 -2 -18 9 -9 19 4 14 18 -4 11 -6 11 -12 0z"/>
<path d="M2093 2380 c-10 -11 -23 -20 -30 -20 -22 0 -14 -40 16 -83 16 -23 35
-58 42 -78 7 -20 32 -58 55 -84 l43 -46 163 -2 c90 -1 184 0 210 3 42 4 47 7
46 27 -2 13 -6 23 -10 23 -4 0 -5 7 -2 15 4 8 1 15 -5 15 -6 0 -11 5 -11 11 0
5 4 8 9 4 5 -3 12 -1 16 5 3 5 1 10 -4 10 -6 0 -11 5 -11 11 0 5 5 7 10 4 11
-7 9 17 -2 25 -4 3 -3 22 1 43 8 35 8 36 -12 25 -21 -11 -21 -11 -3 16 18 28
18 28 -6 21 -20 -7 -21 -6 -10 8 15 18 8 23 -34 25 -20 1 -34 -3 -37 -13 -4
-9 -17 -13 -36 -12 -24 2 -27 5 -20 20 5 9 15 17 21 17 6 0 9 2 6 5 -3 3 -18
-1 -33 -9 -15 -8 -33 -12 -40 -10 -7 3 -16 0 -20 -5 -3 -6 -11 -9 -16 -5 -5 3
-7 10 -4 15 4 5 -2 6 -12 2 -16 -6 -16 -5 -4 10 19 24 8 32 -21 16 -23 -13
-29 -15 -49 -18 -5 0 -7 -6 -3 -13 4 -6 3 -8 -4 -4 -5 3 -12 0 -15 -6 -2 -7
-8 -9 -13 -5 -4 4 3 18 17 30 14 12 20 19 14 15 -6 -4 -17 -2 -23 4 -9 9 -17
6 -35 -10 -13 -12 -27 -22 -33 -22 -5 0 0 7 10 15 11 8 17 18 13 21 -4 4 -27
-10 -52 -30 -25 -21 -45 -33 -45 -27 0 5 4 13 10 16 5 3 15 15 21 26 10 20 10
20 -18 2 -15 -9 -31 -22 -35 -28 -4 -5 -8 -6 -8 -1 0 5 7 18 17 28 10 11 12
18 4 18 -6 0 -19 -9 -28 -20z"/>
<path d="M4260 2390 c0 -5 10 -10 23 -10 18 0 19 2 7 10 -19 13 -30 13 -30 0z"/>
<path d="M2784 2343 c-12 -12 -13 -18 -4 -21 16 -6 45 24 32 32 -6 3 -18 -2
-28 -11z"/>
<path d="M3283 2327 c4 -10 7 -25 7 -33 0 -8 5 -14 10 -14 16 0 11 36 -7 51
-15 12 -16 12 -10 -4z"/>
<path d="M4240 2276 c0 -14 29 -31 38 -21 6 6 -18 35 -29 35 -5 0 -9 -6 -9
-14z"/>
<path d="M4393 2283 c-15 -3 -23 -12 -23 -25 0 -20 1 -20 18 -5 10 10 24 17
30 17 6 0 14 5 17 10 6 10 -2 11 -42 3z"/>
<path d="M1995 2200 c3 -5 8 -10 11 -10 2 0 4 5 4 10 0 6 -5 10 -11 10 -5 0
-7 -4 -4 -10z"/>
<path d="M5536 2163 c-10 -61 -7 -203 4 -203 6 0 10 47 10 120 0 66 -2 120 -4
120 -2 0 -6 -17 -10 -37z"/>
<path d="M4335 2183 c-37 -8 -75 -25 -75 -34 0 -15 67 -10 105 8 19 9 35 20
35 25 0 8 -30 9 -65 1z"/>
<path d="M3675 2164 c-6 -2 -8 -28 -7 -59 3 -47 6 -54 18 -44 11 9 11 15 3 25
-6 8 -9 30 -7 49 2 19 4 35 3 34 0 0 -4 -2 -10 -5z"/>
<path d="M3765 2150 c3 -5 11 -10 16 -10 6 0 7 5 4 10 -3 6 -11 10 -16 10 -6
0 -7 -4 -4 -10z"/>
<path d="M3078 2084 c-16 -8 -28 -16 -28 -18 0 -7 51 7 56 16 10 16 0 17 -28
2z"/>
<path d="M3656 2025 c-3 -8 -1 -15 4 -15 6 0 10 7 10 15 0 8 -2 15 -4 15 -2 0
-6 -7 -10 -15z"/>
<path d="M3698 2023 c12 -2 32 -2 45 0 12 2 2 4 -23 4 -25 0 -35 -2 -22 -4z"/>
<path d="M3075 1980 c-19 -8 -19 -9 3 -9 12 -1 22 4 22 9 0 6 -1 10 -2 9 -2 0
-12 -4 -23 -9z"/>
<path d="M2390 1954 c-14 -7 -33 -11 -42 -8 -35 11 -156 -8 -177 -27 -12 -12
-35 -19 -58 -19 -21 0 -51 -7 -66 -15 -32 -17 -114 -6 -128 16 -4 8 -28 14
-53 15 -43 2 -44 1 -51 -35 -11 -63 -29 -81 -81 -81 -28 0 -43 -4 -39 -10 10
-16 67 -12 130 10 102 35 163 25 227 -37 l37 -36 158 9 c149 8 285 4 331 -10
32 -11 67 46 65 107 -2 65 -37 110 -97 126 -58 14 -125 13 -156 -5z m-150 -44
c0 -5 -7 -7 -15 -4 -8 4 -15 8 -15 10 0 2 7 4 15 4 8 0 15 -4 15 -10z"/>
<path d="M2970 1950 c0 -5 4 -10 9 -10 6 0 13 5 16 10 3 6 -1 10 -9 10 -9 0
-16 -4 -16 -10z"/>
<path d="M3060 1950 c0 -6 7 -10 15 -10 8 0 15 2 15 4 0 2 -7 6 -15 10 -8 3
-15 1 -15 -4z"/>
<path d="M2975 1930 c-20 -8 -20 -9 0 -9 16 -1 13 -7 -18 -39 -24 -25 -37 -47
-37 -65 0 -25 -3 -27 -39 -27 -37 0 -39 -2 -46 -36 -8 -46 -1 -52 34 -31 32
19 67 22 76 7 13 -21 45 -10 50 18 12 56 39 93 87 120 71 40 63 61 -19 56 -24
-1 -43 2 -43 7 0 11 -18 11 -45 -1z"/>
<path d="M3635 1830 l-230 -6 235 0 c129 -1 330 2 445 6 l210 6 -215 0 c-118
0 -318 -3 -445 -6z"/>
<path d="M3048 1626 c-19 -14 -24 -36 -9 -36 12 0 33 28 29 39 -2 6 -10 4 -20
-3z"/>
<path d="M2584 1546 c-8 -21 10 -78 29 -90 13 -8 21 -7 33 6 15 15 15 21 4 50
-20 47 -54 65 -66 34z"/>
<path d="M1872 1485 c-6 -14 -16 -25 -22 -25 -5 0 -10 -6 -10 -12 0 -14 -60
-164 -73 -185 -5 -7 -21 -13 -36 -13 -15 0 -54 -13 -86 -30 -127 -65 -323
-100 -560 -101 -93 0 -240 -7 -325 -15 -189 -17 -319 -18 -372 -2 -22 6 -54
27 -71 45 -49 51 -70 45 -162 -44 -82 -80 -113 -103 -140 -103 -12 0 -15 -13
-15 -61 0 -53 2 -60 18 -55 9 3 41 10 70 16 78 14 162 37 299 81 l123 39 412
-11 c227 -5 519 -10 648 -10 129 0 316 -4 415 -10 99 -6 297 -10 440 -10 253
1 261 1 344 27 59 19 85 33 89 46 2 10 8 18 13 18 9 0 39 53 39 70 0 26 -95
-11 -108 -43 -2 -4 -14 -2 -26 6 -19 13 -31 13 -91 0 -38 -8 -73 -21 -78 -29
-9 -15 -44 -19 -64 -6 -17 10 -27 60 -15 75 27 34 23 54 -20 105 -69 80 -221
192 -262 192 -21 0 -66 -47 -66 -68 0 -5 -17 -12 -39 -16 -31 -5 -48 0 -87 21
-27 15 -55 33 -62 40 -7 7 -20 13 -28 13 -8 0 -14 6 -14 13 0 13 -50 67 -61
67 -3 0 -11 -11 -17 -25z"/>
<path d="M2804 1495 c-9 -23 3 -45 26 -45 25 0 28 45 4 54 -22 8 -24 8 -30 -9z"/>
</g>
</svg>
