<svg xmlns="http://www.w3.org/2000/svg"  viewBox="0 0 72 72" width="64px" height="64px"><path d="M 29.5 14 C 15.125 14 14 15.125 14 29.5 L 14 42.5 C 14 56.875 15.125 58 29.5 58 L 42.5 58 C 56.875 58 58 56.875 58 42.5 L 58 31.021484 L 50 43.384766 L 50 46 C 50 49.71 49.71 50 46 50 L 26 50 C 22.29 50 22 49.71 22 46 L 22 26 C 22 22.29 22.29 22 26 22 L 43.021484 22 C 43.562484 22 44.296344 22.037719 44.777344 22.136719 L 49.716797 14.376953 C 48.104797 14.088953 45.461 14 42.5 14 L 29.5 14 z M 55.851562 16.035156 C 54.603486 15.947109 53.164531 16.406797 52.113281 18.029297 L 39.15625 38.056641 L 31.880859 29.71875 C 30.590859 28.20475 27.954375 27.728938 26.234375 29.335938 C 24.606375 30.857937 24.359562 33.215516 25.851562 34.978516 L 36.615234 47.314453 C 37.375234 48.185453 38.474859 48.685547 39.630859 48.685547 C 39.726859 48.685547 39.818063 48.682781 39.914062 48.675781 C 41.160063 48.586781 42.309328 47.907375 42.986328 46.859375 L 58.847656 22.349609 C 60.491656 19.779609 59.126578 17.529344 57.767578 16.652344 C 57.280453 16.338094 56.600408 16.087984 55.851562 16.035156 z"/></svg>